<svg width="267" height="100" viewBox="0 0 267 100" fill="none" xmlns="http://www.w3.org/2000/svg">
<path d="M100 50C100 77.6142 77.6142 100 50 100C22.3858 100 0 77.6142 0 50C0 22.3858 22.3858 0 50 0C77.6142 0 100 22.3858 100 50ZM13.4821 50C13.4821 70.1683 29.8317 86.5179 50 86.5179C70.1683 86.5179 86.5179 70.1683 86.5179 50C86.5179 29.8317 70.1683 13.4821 50 13.4821C29.8317 13.4821 13.4821 29.8317 13.4821 50Z" fill="#402F21"/>
<rect x="96.0944" y="10.701" width="15" height="125.965" transform="rotate(-45 96.0944 10.701)" fill="#8C7158"/>
<rect x="185.09" y="0.2276" width="15" height="125.577" transform="rotate(45 185.09 0.2276)" fill="#8C7158"/>
<path d="M221.779 7.55078H214.607V30.2969H210.775V7.55078H203.568V4.07031H221.779V7.55078ZM228.143 30.2969H224.311V4.07031H228.143V30.2969ZM250.08 11.9805H246.107C246.107 10.8555 245.967 10.0234 245.686 9.48438C245.428 8.92188 245.111 8.45312 244.736 8.07812C244.314 7.75 243.834 7.50391 243.295 7.33984C242.779 7.15234 242.275 7.04687 241.783 7.02344C240.893 7.02344 240.037 7.21094 239.217 7.58594C238.42 7.96094 237.693 8.57031 237.037 9.41406C236.381 10.2812 235.865 11.3945 235.49 12.7539C235.115 14.0898 234.928 15.4258 234.928 16.7617C234.928 17.6289 235.033 18.6719 235.244 19.8906C235.455 21.1094 235.842 22.3047 236.404 23.4766C236.99 24.5547 237.775 25.4688 238.76 26.2188C239.744 26.9453 241.01 27.3086 242.557 27.3086C243.682 27.3086 244.748 27.1211 245.756 26.7461C246.764 26.3477 247.936 25.7383 249.271 24.918V28.9609C248.873 29.1719 248.486 29.3711 248.111 29.5586C247.76 29.7461 247.279 29.9336 246.67 30.1211C245.264 30.5195 243.658 30.7188 241.854 30.7188C239.979 30.7188 238.35 30.3086 236.967 29.4883C235.607 28.668 234.459 27.5781 233.521 26.2188C232.607 24.8594 231.963 23.3711 231.588 21.7539C231.236 20.1367 231.061 18.4727 231.061 16.7617C231.061 15.0508 231.26 13.4102 231.658 11.8398C232.057 10.2695 232.713 8.88672 233.627 7.69141C234.518 6.51953 235.643 5.54688 237.002 4.77344C238.361 3.97656 239.955 3.57812 241.783 3.57812C242.885 3.57812 243.939 3.77734 244.947 4.17578C245.955 4.55078 246.834 5.07812 247.584 5.75781C248.334 6.4375 248.932 7.25781 249.377 8.21875C249.846 9.15625 250.08 10.4102 250.08 11.9805Z" fill="#0D0D0D"/>
<path d="M221.963 39.5508H214.791V62.2969H210.959V39.5508H203.752V36.0703H221.963V39.5508ZM239.998 62.2969H235.99L233.564 54.4219H225.865L223.51 62.2969H219.502L227.869 36.0703H231.631L239.998 62.2969ZM232.545 50.9414L229.768 41.6602L226.955 50.9414H232.545ZM259.896 43.9805H255.924C255.924 42.8555 255.783 42.0234 255.502 41.4844C255.244 40.9219 254.928 40.4531 254.553 40.0781C254.131 39.75 253.65 39.5039 253.111 39.3398C252.596 39.1523 252.092 39.0469 251.6 39.0234C250.709 39.0234 249.854 39.2109 249.033 39.5859C248.236 39.9609 247.51 40.5703 246.854 41.4141C246.197 42.2812 245.682 43.3945 245.307 44.7539C244.932 46.0898 244.744 47.4258 244.744 48.7617C244.744 49.6289 244.85 50.6719 245.061 51.8906C245.271 53.1094 245.658 54.3047 246.221 55.4766C246.807 56.5547 247.592 57.4688 248.576 58.2188C249.561 58.9453 250.826 59.3086 252.373 59.3086C253.498 59.3086 254.564 59.1211 255.572 58.7461C256.58 58.3477 257.752 57.7383 259.088 56.918V60.9609C258.689 61.1719 258.303 61.3711 257.928 61.5586C257.576 61.7461 257.096 61.9336 256.486 62.1211C255.08 62.5195 253.475 62.7188 251.67 62.7188C249.795 62.7188 248.166 62.3086 246.783 61.4883C245.424 60.668 244.275 59.5781 243.338 58.2188C242.424 56.8594 241.779 55.3711 241.404 53.7539C241.053 52.1367 240.877 50.4727 240.877 48.7617C240.877 47.0508 241.076 45.4102 241.475 43.8398C241.873 42.2695 242.529 40.8867 243.443 39.6914C244.334 38.5195 245.459 37.5469 246.818 36.7734C248.178 35.9766 249.771 35.5781 251.6 35.5781C252.701 35.5781 253.756 35.7773 254.764 36.1758C255.771 36.5508 256.65 37.0781 257.4 37.7578C258.15 38.4375 258.748 39.2578 259.193 40.2188C259.662 41.1562 259.896 42.4102 259.896 43.9805Z" fill="#0D0D0D"/>
<path d="M222.049 71.5508H214.877V94.2969H211.045V71.5508H203.838V68.0703H222.049V71.5508ZM240.4 81.1484C240.4 79.7422 240.225 78.3711 239.873 77.0352C239.545 75.6992 239.053 74.5742 238.396 73.6602C237.787 72.7461 237.049 72.0664 236.182 71.6211C235.314 71.1758 234.424 70.9531 233.51 70.9531C232.596 70.9531 231.693 71.1758 230.803 71.6211C229.936 72.0664 229.209 72.7461 228.623 73.6602C227.967 74.5742 227.463 75.6992 227.111 77.0352C226.76 78.3711 226.584 79.7422 226.584 81.1484C226.584 82.5781 226.76 83.9492 227.111 85.2617C227.463 86.5742 227.967 87.6875 228.623 88.6016C229.209 89.5156 229.936 90.207 230.803 90.6758C231.693 91.1211 232.596 91.3438 233.51 91.3438C234.424 91.3438 235.314 91.1211 236.182 90.6758C237.049 90.207 237.787 89.5156 238.396 88.6016C239.053 87.6875 239.545 86.5742 239.873 85.2617C240.225 83.9492 240.4 82.5781 240.4 81.1484ZM244.268 81.1484C244.268 83 244.01 84.7812 243.494 86.4922C243.002 88.2031 242.275 89.668 241.314 90.8867C240.354 92.1289 239.182 93.0781 237.799 93.7344C236.416 94.3672 234.986 94.6836 233.51 94.6836C232.01 94.6836 230.568 94.3672 229.186 93.7344C227.826 93.0781 226.666 92.1289 225.705 90.8867C224.744 89.668 224.006 88.2031 223.49 86.4922C222.998 84.7812 222.752 83 222.752 81.1484C222.752 79.3203 222.998 77.5508 223.49 75.8398C224.006 74.1289 224.744 72.6523 225.705 71.4102C226.666 70.1914 227.826 69.2539 229.186 68.5977C230.568 67.918 232.01 67.5781 233.51 67.5781C234.986 67.5781 236.416 67.918 237.799 68.5977C239.182 69.2539 240.354 70.1914 241.314 71.4102C242.275 72.6523 243.002 74.1289 243.494 75.8398C244.01 77.5508 244.268 79.3203 244.268 81.1484ZM261.354 94.2969H247.221V68.0703H261.072V71.5508H251.053V78.8633H260.615V82.3438H251.053V90.8164H261.354V94.2969Z" fill="#0D0D0D"/>
</svg>
